<svg xmlns="http://www.w3.org/2000/svg" viewBox="0 0 300 97.12"><defs><style>.cls-1{fill:#21684f;}</style></defs><g id="레이어_2" data-name="레이어 2"><g id="레이어_3" data-name="레이어 3"><polygon points="110.6 4.91 111.38 4.91 106.7 0 100.79 0 110.6 10.33 110.6 4.91"/><polygon points="137.63 44.68 168.53 44.68 181.78 27.99 190.03 17.59 203.98 0 173.07 0 168.78 5.41 152.74 25.63 142.91 38.02 131.11 25.63 125.13 25.63 140.19 41.48 137.63 44.68"/><polygon points="170.48 67.05 159.74 55.77 165.81 48.12 134.9 48.12 119.78 67.05 150.67 67.05 157.01 59.1 164.55 67.05 181.97 85.42 193.07 97.12 199.13 97.12 186.32 83.68 170.48 67.05"/><polygon points="110.6 78.56 95.79 97.12 126.7 97.12 134.16 87.77 110.6 87.77 110.6 78.56"/><path class="cls-1" d="M183,45.63c6.08-3,8.53-8.28,8.53-11.24,0-6.85-.09-12.42-1.49-16.8L181.78,28c3.27,1.44,5.61,3.67,5.61,7,0,6.86-9.7,9.7-16,9.7h-57v-19h38.39l16-20.22c-3.4-.33-7.28-.5-11.77-.5H110.6V87.77h50.54c9.17,0,15.89-.83,20.83-2.35L164.55,67.05h-50.2V48.12h61.14c4.53,0,16.16,2.24,16.16,9.46,0,5.69-7.37,9.47-19.26,9.47h-1.91l15.84,16.63c9.33-4.82,9.34-13.58,9.34-24.68C195.66,51.67,189.07,47.29,183,45.63Z"/><path d="M43.18,87.77V25.63H0V4.91H90.23V25.63H46.92V87.77Z"/><path d="M253,87.77V25.63H209.77V4.91H300V25.63H256.69V87.77Z"/></g></g></svg>